<?xml version="1.0" encoding="iso-8859-1"?>
<!-- Uploaded to: SVG Repo, www.svgrepo.com, Generator: SVG Repo Mixer Tools -->
<svg height="800px" width="800px" version="1.1" id="Layer_1" xmlns="http://www.w3.org/2000/svg" xmlns:xlink="http://www.w3.org/1999/xlink" 
	 viewBox="0 0 512 512" xml:space="preserve">
<path style="fill:#FFE0B2;" d="M438.127,137.873c-10.718-10.718-17.886-24.977-19.601-40.875c-0.452-4.241-4.139-7.398-8.414-7.398
	H363.87c-30.524-21.478-67.712-34.133-107.878-34.133S178.645,68.122,148.113,89.6h-46.242c-4.309,0-7.953,3.217-8.422,7.501
	c-1.562,14.268-7.518,27.213-16.486,37.453c-10.982,12.535-26.479,21.018-43.947,22.912c-4.241,0.461-7.415,4.139-7.415,8.414V345.6
	h73.088c33.502,51.362,91.426,85.333,157.312,85.333s123.819-33.971,157.312-85.333H486.4V165.888c0-4.267-3.157-7.953-7.398-8.414
	C463.104,155.759,448.845,148.591,438.127,137.873z"/>
<path style="fill:#FFF3E0;" d="M256,413.867c-57.865,0-111.326-29.005-143.019-77.594l-5.052-7.74H42.667V173.218
	c33.382-6.81,59.742-33.169,66.551-66.551h44.305l4.42-3.106C186.795,83.26,220.698,72.533,256,72.533
	c35.302,0,69.205,10.726,98.057,31.027l4.42,3.106h44.305c6.81,33.382,33.169,59.742,66.551,66.551v155.315H404.07l-5.052,7.74
	C367.326,384.862,313.865,413.867,256,413.867z"/>
<g>
	<path style="fill:#81D4FA;" d="M100.693,273.929c-5.828,0.845-10.718-4.164-9.626-9.95c1.801-9.506,2.799-19.285,2.799-29.312
		c0-10.027-0.998-19.806-2.799-29.312c-1.092-5.786,3.797-10.795,9.626-9.95c22.852,3.328,46.199,5.129,69.973,5.129
		s47.121-1.801,69.973-5.129c5.828-0.845,10.718,4.164,9.626,9.95c-1.801,9.506-2.799,19.285-2.799,29.312
		c0,10.027,0.998,19.806,2.799,29.312c1.092,5.786-3.797,10.795-9.626,9.95c-22.852-3.328-46.199-5.129-69.973-5.129
		C146.893,268.8,123.546,270.601,100.693,273.929z"/>
	<path style="fill:#81D4FA;" d="M271.36,273.929c-5.828,0.845-10.718-4.164-9.626-9.95c1.801-9.506,2.799-19.285,2.799-29.312
		c0-10.027-0.998-19.806-2.799-29.312c-1.092-5.786,3.797-10.795,9.626-9.95c22.852,3.328,46.199,5.129,69.973,5.129
		s47.121-1.801,69.973-5.129c5.828-0.845,10.718,4.164,9.626,9.95c-1.801,9.506-2.799,19.285-2.799,29.312
		c0,10.027,0.998,19.806,2.799,29.312c1.092,5.786-3.797,10.795-9.626,9.95c-22.852-3.328-46.199-5.129-69.973-5.129
		C317.559,268.8,294.212,270.601,271.36,273.929z"/>
</g>
<path style="fill:#B3E5FC;" d="M508.578,373.572l0.017-0.017c0,0-10.726-20.762-13.67-27.964
	c-5.914-14.464-19.763-59.298-19.763-59.298c-3.482-10.453-13.269-17.502-24.286-17.502H61.116
	c-11.017,0-20.804,7.049-24.286,17.502c0,0-13.85,44.834-19.763,59.298c-2.944,7.202-13.67,27.964-13.67,27.964l0.017,0.017
	C1.246,378.01,0,382.976,0,388.267c0,10.735,5.052,20.19,12.8,26.445c7.748-6.255,12.8-15.71,12.8-26.445h14.225V345.6h432.358
	v42.667H486.4c0,10.735,5.052,20.19,12.8,26.445c7.748-6.255,12.8-15.718,12.8-26.445C512,382.976,510.754,378.01,508.578,373.572z"
	/>
<g>
	<polygon style="fill:#6D4C41;" points="59.733,456.533 42.667,456.533 42.667,430.933 68.267,430.933 	"/>
	<polygon style="fill:#6D4C41;" points="452.267,456.533 469.333,456.533 469.333,430.933 443.733,430.933 	"/>
</g>
<path style="fill:#FFCC80;" d="M477.867,430.933H34.133c-4.71,0-8.533-3.823-8.533-8.533v-68.267c0-4.71,3.823-8.533,8.533-8.533
	h443.733c4.71,0,8.533,3.823,8.533,8.533V422.4C486.4,427.11,482.577,430.933,477.867,430.933z"/>
</svg>